<svg xmlns="http://www.w3.org/2000/svg" width="1440" height="900"><path d="M707,450L770,421L642,365Z" fill="#f9f9f9" stroke="#f9f9f9" stroke-width="1.51"/><path d="M770,421L737,307L642,365Z" fill="#f4f4f4" stroke="#f4f4f4" stroke-width="1.51"/><path d="M737,307L648,194L642,365Z" fill="#e8e7e7" stroke="#e8e7e7" stroke-width="1.51"/><path d="M864,325L762,250L737,307Z" fill="#e4e4e4" stroke="#e4e4e4" stroke-width="1.51"/><path d="M770,421L864,325L737,307Z" fill="#eaeaea" stroke="#eaeaea" stroke-width="1.51"/><path d="M770,421L848,477L864,325Z" fill="#edecec" stroke="#edecec" stroke-width="1.51"/><path d="M707,450L848,477L770,421Z" fill="#f8f8f8" stroke="#f8f8f8" stroke-width="1.51"/><path d="M642,365L542,474L707,450Z" fill="#f5f5f5" stroke="#f5f5f5" stroke-width="1.51"/><path d="M823,588L852,559L848,477Z" fill="#dfdfdf" stroke="#dfdfdf" stroke-width="1.51"/><path d="M762,250L648,194L737,307Z" fill="#e6e6e6" stroke="#e6e6e6" stroke-width="1.51"/><path d="M642,365L518,331L542,474Z" fill="#ecebeb" stroke="#ecebeb" stroke-width="1.51"/><path d="M648,194L518,331L642,365Z" fill="#e3e3e3" stroke="#e3e3e3" stroke-width="1.51"/><path d="M542,474L654,588L707,450Z" fill="#eeeeee" stroke="#eeeeee" stroke-width="1.51"/><path d="M972,462L973,325L864,325Z" fill="#dcdbdb" stroke="#dcdbdb" stroke-width="1.51"/><path d="M823,588L848,477L707,450Z" fill="#ecebeb" stroke="#ecebeb" stroke-width="1.51"/><path d="M654,588L823,588L707,450Z" fill="#ececec" stroke="#ececec" stroke-width="1.51"/><path d="M518,331L449,423L542,474Z" fill="#e9e9e9" stroke="#e9e9e9" stroke-width="1.51"/><path d="M433,232L459,330L518,331Z" fill="#d9d9d9" stroke="#d9d9d9" stroke-width="1.51"/><path d="M648,194L542,180L518,331Z" fill="#dad9d9" stroke="#dad9d9" stroke-width="1.51"/><path d="M923,183L775,118L762,250Z" fill="#d3d2d2" stroke="#d3d2d2" stroke-width="1.51"/><path d="M775,118L634,124L648,194Z" fill="#d8d7d7" stroke="#d8d7d7" stroke-width="1.51"/><path d="M972,462L864,325L848,477Z" fill="#e7e6e6" stroke="#e7e6e6" stroke-width="1.51"/><path d="M648,194L634,124L542,180Z" fill="#d5d4d4" stroke="#d5d4d4" stroke-width="1.51"/><path d="M775,118L648,194L762,250Z" fill="#dedede" stroke="#dedede" stroke-width="1.51"/><path d="M459,330L449,423L518,331Z" fill="#e2e1e1" stroke="#e2e1e1" stroke-width="1.51"/><path d="M542,474L510,593L654,588Z" fill="#e0e0e0" stroke="#e0e0e0" stroke-width="1.51"/><path d="M923,183L762,250L864,325Z" fill="#d8d7d7" stroke="#d8d7d7" stroke-width="1.51"/><path d="M988,528L972,462L848,477Z" fill="#dedddd" stroke="#dedddd" stroke-width="1.51"/><path d="M988,528L848,477L852,559Z" fill="#dddcdc" stroke="#dddcdc" stroke-width="1.51"/><path d="M449,423L472,523L542,474Z" fill="#e9e8e8" stroke="#e9e8e8" stroke-width="1.51"/><path d="M973,325L923,183L864,325Z" fill="#d3d2d2" stroke="#d3d2d2" stroke-width="1.51"/><path d="M823,588L889,667L852,559Z" fill="#d2d1d1" stroke="#d2d1d1" stroke-width="1.51"/><path d="M654,588L800,659L823,588Z" fill="#dcdbdb" stroke="#dcdbdb" stroke-width="1.51"/><path d="M687,697L800,659L654,588Z" fill="#d9d8d8" stroke="#d9d8d8" stroke-width="1.51"/><path d="M472,523L510,593L542,474Z" fill="#e0dfdf" stroke="#e0dfdf" stroke-width="1.51"/><path d="M889,667L988,528L852,559Z" fill="#d0cece" stroke="#d0cece" stroke-width="1.51"/><path d="M1160,407L1112,299L973,325Z" fill="#c8c7c7" stroke="#c8c7c7" stroke-width="1.51"/><path d="M542,180L433,232L518,331Z" fill="#d6d5d5" stroke="#d6d5d5" stroke-width="1.51"/><path d="M459,330L356,361L449,423Z" fill="#dfdede" stroke="#dfdede" stroke-width="1.51"/><path d="M427,106L433,232L542,180Z" fill="#cbcaca" stroke="#cbcaca" stroke-width="1.51"/><path d="M557,681L687,697L654,588Z" fill="#d2d1d1" stroke="#d2d1d1" stroke-width="1.51"/><path d="M634,124L527,114L542,180Z" fill="#cecdcd" stroke="#cecdcd" stroke-width="1.51"/><path d="M565,29L527,114L634,124Z" fill="#c9c8c8" stroke="#c9c8c8" stroke-width="1.51"/><path d="M617,-47L565,29L634,124Z" fill="#c5c4c4" stroke="#c5c4c4" stroke-width="1.51"/><path d="M923,183L869,82L775,118Z" fill="#c9c7c7" stroke="#c9c7c7" stroke-width="1.51"/><path d="M800,659L889,667L823,588Z" fill="#cecdcd" stroke="#cecdcd" stroke-width="1.51"/><path d="M933,794L889,667L800,659Z" fill="#bebcbc" stroke="#bebcbc" stroke-width="1.51"/><path d="M510,593L557,681L654,588Z" fill="#d4d3d3" stroke="#d4d3d3" stroke-width="1.51"/><path d="M447,650L557,681L510,593Z" fill="#cbcaca" stroke="#cbcaca" stroke-width="1.51"/><path d="M923,183L1052,128L869,82Z" fill="#bebdbd" stroke="#bebdbd" stroke-width="1.51"/><path d="M973,325L998,190L923,183Z" fill="#c8c7c7" stroke="#c8c7c7" stroke-width="1.51"/><path d="M1112,299L998,190L973,325Z" fill="#c6c4c4" stroke="#c6c4c4" stroke-width="1.51"/><path d="M433,232L356,361L459,330Z" fill="#d7d6d6" stroke="#d7d6d6" stroke-width="1.51"/><path d="M449,423L356,526L472,523Z" fill="#e1e0e0" stroke="#e1e0e0" stroke-width="1.51"/><path d="M472,523L447,650L510,593Z" fill="#d2d2d2" stroke="#d2d2d2" stroke-width="1.51"/><path d="M527,114L427,106L542,180Z" fill="#c9c8c8" stroke="#c9c8c8" stroke-width="1.51"/><path d="M617,-47L634,124L775,118Z" fill="#cecdcd" stroke="#cecdcd" stroke-width="1.51"/><path d="M356,526L447,650L472,523Z" fill="#d3d2d2" stroke="#d3d2d2" stroke-width="1.51"/><path d="M302,442L356,526L449,423Z" fill="#e2e1e1" stroke="#e2e1e1" stroke-width="1.51"/><path d="M433,232L332,179L356,361Z" fill="#cecdcd" stroke="#cecdcd" stroke-width="1.51"/><path d="M405,29L427,106L527,114Z" fill="#c0bebe" stroke="#c0bebe" stroke-width="1.51"/><path d="M1160,407L973,325L972,462Z" fill="#d4d3d3" stroke="#d4d3d3" stroke-width="1.51"/><path d="M356,361L302,442L449,423Z" fill="#e0dfdf" stroke="#e0dfdf" stroke-width="1.51"/><path d="M221,361L302,442L356,361Z" fill="#d7d7d7" stroke="#d7d7d7" stroke-width="1.51"/><path d="M869,82L807,-29L775,118Z" fill="#c5c3c3" stroke="#c5c3c3" stroke-width="1.51"/><path d="M871,-23L807,-29L869,82Z" fill="#bcbaba" stroke="#bcbaba" stroke-width="1.51"/><path d="M1052,128L923,183L998,190Z" fill="#bebcbc" stroke="#bebcbc" stroke-width="1.51"/><path d="M1097,182L1052,128L998,190Z" fill="#b7b5b5" stroke="#b7b5b5" stroke-width="1.51"/><path d="M687,697L743,806L800,659Z" fill="#c9c8c8" stroke="#c9c8c8" stroke-width="1.51"/><path d="M616,831L743,806L687,697Z" fill="#bfbdbd" stroke="#bfbdbd" stroke-width="1.51"/><path d="M616,831L687,697L557,681Z" fill="#c3c1c1" stroke="#c3c1c1" stroke-width="1.51"/><path d="M427,106L332,179L433,232Z" fill="#c6c5c5" stroke="#c6c5c5" stroke-width="1.51"/><path d="M1032,-33L871,-23L869,82Z" fill="#b3b2b2" stroke="#b3b2b2" stroke-width="1.51"/><path d="M1112,299L1097,182L998,190Z" fill="#bbbaba" stroke="#bbbaba" stroke-width="1.51"/><path d="M405,29L343,108L427,106Z" fill="#bbb9b9" stroke="#bbb9b9" stroke-width="1.51"/><path d="M427,106L343,108L332,179Z" fill="#bebdbd" stroke="#bebdbd" stroke-width="1.51"/><path d="M807,-29L617,-47L775,118Z" fill="#c9c8c8" stroke="#c9c8c8" stroke-width="1.51"/><path d="M820,-86L617,-47L807,-29Z" fill="#c6c5c5" stroke="#c6c5c5" stroke-width="1.51"/><path d="M988,528L1125,532L972,462Z" fill="#d0cfcf" stroke="#d0cfcf" stroke-width="1.51"/><path d="M1118,701L1125,532L988,528Z" fill="#bcbaba" stroke="#bcbaba" stroke-width="1.51"/><path d="M1020,721L988,528L889,667Z" fill="#bfbdbd" stroke="#bfbdbd" stroke-width="1.51"/><path d="M1125,532L1160,407L972,462Z" fill="#d1d0d0" stroke="#d1d0d0" stroke-width="1.51"/><path d="M1112,299L1214,250L1097,182Z" fill="#b6b4b4" stroke="#b6b4b4" stroke-width="1.51"/><path d="M405,29L527,114L565,29Z" fill="#c0bfbf" stroke="#c0bfbf" stroke-width="1.51"/><path d="M933,794L1020,721L889,667Z" fill="#b2afaf" stroke="#b2afaf" stroke-width="1.51"/><path d="M530,839L616,831L557,681Z" fill="#b6b4b4" stroke="#b6b4b4" stroke-width="1.51"/><path d="M526,-134L405,29L565,29Z" fill="#b9b8b8" stroke="#b9b8b8" stroke-width="1.51"/><path d="M743,806L933,794L800,659Z" fill="#bbb9b9" stroke="#bbb9b9" stroke-width="1.51"/><path d="M912,924L933,794L743,806Z" fill="#a6a4a4" stroke="#a6a4a4" stroke-width="1.51"/><path d="M1097,182L1099,108L1052,128Z" fill="#b0aeae" stroke="#b0aeae" stroke-width="1.51"/><path d="M1052,128L1032,-33L869,82Z" fill="#b2b0b0" stroke="#b2b0b0" stroke-width="1.51"/><path d="M1282,118L1099,108L1097,182Z" fill="#a8a5a5" stroke="#a8a5a5" stroke-width="1.51"/><path d="M871,-23L820,-86L807,-29Z" fill="#bcbbbb" stroke="#bcbbbb" stroke-width="1.51"/><path d="M898,-131L820,-86L871,-23Z" fill="#b9b7b7" stroke="#b9b7b7" stroke-width="1.51"/><path d="M160,192L221,361L332,179Z" fill="#c3c1c1" stroke="#c3c1c1" stroke-width="1.51"/><path d="M332,179L221,361L356,361Z" fill="#cecdcd" stroke="#cecdcd" stroke-width="1.51"/><path d="M234,687L348,726L356,526Z" fill="#bcbaba" stroke="#bcbaba" stroke-width="1.51"/><path d="M434,825L557,681L447,650Z" fill="#bcb9b9" stroke="#bcb9b9" stroke-width="1.51"/><path d="M348,726L447,650L356,526Z" fill="#c4c2c2" stroke="#c4c2c2" stroke-width="1.51"/><path d="M434,825L530,839L557,681Z" fill="#b2b0b0" stroke="#b2b0b0" stroke-width="1.51"/><path d="M163,598L356,526L302,442Z" fill="#d0cfcf" stroke="#d0cfcf" stroke-width="1.51"/><path d="M1160,407L1214,250L1112,299Z" fill="#bcbaba" stroke="#bcbaba" stroke-width="1.51"/><path d="M1125,532L1192,559L1160,407Z" fill="#c3c1c1" stroke="#c3c1c1" stroke-width="1.51"/><path d="M1118,701L1192,559L1125,532Z" fill="#b3b0b0" stroke="#b3b0b0" stroke-width="1.51"/><path d="M1270,374L1214,250L1160,407Z" fill="#b9b7b7" stroke="#b9b7b7" stroke-width="1.51"/><path d="M1020,721L1118,701L988,528Z" fill="#b5b2b2" stroke="#b5b2b2" stroke-width="1.51"/><path d="M1078,833L1118,701L1020,721Z" fill="#9f9d9d" stroke="#9f9d9d" stroke-width="1.51"/><path d="M1091,14L1032,-33L1052,128Z" fill="#a7a5a5" stroke="#a7a5a5" stroke-width="1.51"/><path d="M1091,14L1052,128L1099,108Z" fill="#aaa8a8" stroke="#aaa8a8" stroke-width="1.51"/><path d="M1235,-3L1091,14L1099,108Z" fill="#9e9c9c" stroke="#9e9c9c" stroke-width="1.51"/><path d="M348,726L434,825L447,650Z" fill="#b3b2b2" stroke="#b3b2b2" stroke-width="1.51"/><path d="M434,825L513,877L530,839Z" fill="#a5a3a3" stroke="#a5a3a3" stroke-width="1.51"/><path d="M530,839L513,877L616,831Z" fill="#aaa7a7" stroke="#aaa7a7" stroke-width="1.51"/><path d="M707,927L759,914L743,806Z" fill="#aeabab" stroke="#aeabab" stroke-width="1.51"/><path d="M707,927L743,806L616,831Z" fill="#b2b0b0" stroke="#b2b0b0" stroke-width="1.51"/><path d="M933,794L1028,823L1020,721Z" fill="#a3a1a1" stroke="#a3a1a1" stroke-width="1.51"/><path d="M621,-166L526,-134L617,-47Z" fill="#c0bfbf" stroke="#c0bfbf" stroke-width="1.51"/><path d="M1032,-33L898,-131L871,-23Z" fill="#b1b0b0" stroke="#b1b0b0" stroke-width="1.51"/><path d="M912,924L1028,823L933,794Z" fill="#9b9999" stroke="#9b9999" stroke-width="1.51"/><path d="M617,-47L526,-134L565,29Z" fill="#bebdbd" stroke="#bebdbd" stroke-width="1.51"/><path d="M179,-31L206,142L343,108Z" fill="#afaeae" stroke="#afaeae" stroke-width="1.51"/><path d="M621,-166L617,-47L820,-86Z" fill="#c7c6c6" stroke="#c7c6c6" stroke-width="1.51"/><path d="M348,726L337,775L434,825Z" fill="#a9a7a7" stroke="#a9a7a7" stroke-width="1.51"/><path d="M401,951L557,994L513,877Z" fill="#9c9a9a" stroke="#9c9a9a" stroke-width="1.51"/><path d="M234,687L337,775L348,726Z" fill="#adabab" stroke="#adabab" stroke-width="1.51"/><path d="M221,361L170,443L302,442Z" fill="#d7d5d5" stroke="#d7d5d5" stroke-width="1.51"/><path d="M77,420L170,443L71,362Z" fill="#cccbcb" stroke="#cccbcb" stroke-width="1.51"/><path d="M557,994L707,927L616,831Z" fill="#a6a3a3" stroke="#a6a3a3" stroke-width="1.51"/><path d="M898,-131L621,-166L820,-86Z" fill="#c3c1c1" stroke="#c3c1c1" stroke-width="1.51"/><path d="M1192,559L1264,449L1160,407Z" fill="#c3c1c1" stroke="#c3c1c1" stroke-width="1.51"/><path d="M1322,486L1264,449L1192,559Z" fill="#b8b6b6" stroke="#b8b6b6" stroke-width="1.51"/><path d="M1264,449L1270,374L1160,407Z" fill="#bfbdbd" stroke="#bfbdbd" stroke-width="1.51"/><path d="M343,108L206,142L332,179Z" fill="#bbb9b9" stroke="#bbb9b9" stroke-width="1.51"/><path d="M329,-54L343,108L405,29Z" fill="#b2b1b1" stroke="#b2b1b1" stroke-width="1.51"/><path d="M163,598L234,687L356,526Z" fill="#bfbebe" stroke="#bfbebe" stroke-width="1.51"/><path d="M409,-141L329,-54L405,29Z" fill="#b1afaf" stroke="#b1afaf" stroke-width="1.51"/><path d="M797,981L912,924L759,914Z" fill="#a19e9e" stroke="#a19e9e" stroke-width="1.51"/><path d="M759,914L912,924L743,806Z" fill="#a6a3a3" stroke="#a6a3a3" stroke-width="1.51"/><path d="M101,78L160,192L206,142Z" fill="#b0aeae" stroke="#b0aeae" stroke-width="1.51"/><path d="M206,142L160,192L332,179Z" fill="#bab8b8" stroke="#bab8b8" stroke-width="1.51"/><path d="M1118,701L1234,665L1192,559Z" fill="#a7a4a4" stroke="#a7a4a4" stroke-width="1.51"/><path d="M1028,823L1078,833L1020,721Z" fill="#9c9999" stroke="#9c9999" stroke-width="1.51"/><path d="M1089,913L1078,833L1028,823Z" fill="#8e8b8b" stroke="#8e8b8b" stroke-width="1.51"/><path d="M1142,-157L1047,-103L1091,14Z" fill="#9f9d9d" stroke="#9f9d9d" stroke-width="1.51"/><path d="M1091,14L1047,-103L1032,-33Z" fill="#a3a1a1" stroke="#a3a1a1" stroke-width="1.51"/><path d="M1032,-33L1047,-103L898,-131Z" fill="#aba9a9" stroke="#aba9a9" stroke-width="1.51"/><path d="M170,443L163,598L302,442Z" fill="#d1d0d0" stroke="#d1d0d0" stroke-width="1.51"/><path d="M113,594L163,598L170,443Z" fill="#c3c1c1" stroke="#c3c1c1" stroke-width="1.51"/><path d="M1255,841L1234,665L1118,701Z" fill="#949191" stroke="#949191" stroke-width="1.51"/><path d="M526,-134L409,-141L405,29Z" fill="#b5b4b4" stroke="#b5b4b4" stroke-width="1.51"/><path d="M621,-166L409,-141L526,-134Z" fill="#bbb9b9" stroke="#bbb9b9" stroke-width="1.51"/><path d="M707,927L797,981L759,914Z" fill="#a8a6a6" stroke="#a8a6a6" stroke-width="1.51"/><path d="M628,1016L797,981L707,927Z" fill="#aca9a9" stroke="#aca9a9" stroke-width="1.51"/><path d="M1264,449L1322,486L1270,374Z" fill="#bcbaba" stroke="#bcbaba" stroke-width="1.51"/><path d="M1338,185L1282,118L1214,250Z" fill="#a09e9e" stroke="#a09e9e" stroke-width="1.51"/><path d="M1378,598L1322,486L1192,559Z" fill="#aaa8a8" stroke="#aaa8a8" stroke-width="1.51"/><path d="M409,-141L358,-132L329,-54Z" fill="#b0aeae" stroke="#b0aeae" stroke-width="1.51"/><path d="M329,-54L179,-31L343,108Z" fill="#aba9a9" stroke="#aba9a9" stroke-width="1.51"/><path d="M1214,250L1282,118L1097,182Z" fill="#a9a6a6" stroke="#a9a6a6" stroke-width="1.51"/><path d="M1338,185L1214,250L1368,349Z" fill="#a5a3a3" stroke="#a5a3a3" stroke-width="1.51"/><path d="M513,877L557,994L616,831Z" fill="#a19f9f" stroke="#a19f9f" stroke-width="1.51"/><path d="M401,951L513,877L434,825Z" fill="#9c9999" stroke="#9c9999" stroke-width="1.51"/><path d="M401,951L434,825L337,775Z" fill="#9e9b9b" stroke="#9e9b9b" stroke-width="1.51"/><path d="M912,924L996,948L1028,823Z" fill="#908d8d" stroke="#908d8d" stroke-width="1.51"/><path d="M1078,833L1255,841L1118,701Z" fill="#908d8d" stroke="#908d8d" stroke-width="1.51"/><path d="M897,1044L996,948L912,924Z" fill="#959292" stroke="#959292" stroke-width="1.51"/><path d="M71,362L170,443L221,361Z" fill="#cdcccc" stroke="#cdcccc" stroke-width="1.51"/><path d="M77,420L113,594L170,443Z" fill="#cbcaca" stroke="#cbcaca" stroke-width="1.51"/><path d="M64,681L164,769L234,687Z" fill="#a5a3a3" stroke="#a5a3a3" stroke-width="1.51"/><path d="M289,951L401,951L337,775Z" fill="#939191" stroke="#939191" stroke-width="1.51"/><path d="M160,192L71,362L221,361Z" fill="#c3c2c2" stroke="#c3c2c2" stroke-width="1.51"/><path d="M797,981L897,1044L912,924Z" fill="#9c9999" stroke="#9c9999" stroke-width="1.51"/><path d="M557,994L628,1016L707,927Z" fill="#a6a3a3" stroke="#a6a3a3" stroke-width="1.51"/><path d="M1282,118L1235,-3L1099,108Z" fill="#9c9999" stroke="#9c9999" stroke-width="1.51"/><path d="M557,994L396,1052L628,1016Z" fill="#9f9c9c" stroke="#9f9c9c" stroke-width="1.51"/><path d="M164,769L337,775L234,687Z" fill="#a6a4a4" stroke="#a6a4a4" stroke-width="1.51"/><path d="M996,948L1089,913L1028,823Z" fill="#8a8787" stroke="#8a8787" stroke-width="1.51"/><path d="M1368,349L1214,250L1270,374Z" fill="#afadad" stroke="#afadad" stroke-width="1.51"/><path d="M1282,118L1313,108L1235,-3Z" fill="#949191" stroke="#949191" stroke-width="1.51"/><path d="M1322,486L1368,349L1270,374Z" fill="#b4b2b2" stroke="#b4b2b2" stroke-width="1.51"/><path d="M1338,185L1313,108L1282,118Z" fill="#979494" stroke="#979494" stroke-width="1.51"/><path d="M215,-115L179,-31L329,-54Z" fill="#a7a5a5" stroke="#a7a5a5" stroke-width="1.51"/><path d="M160,192L47,263L71,362Z" fill="#bbbaba" stroke="#bbbaba" stroke-width="1.51"/><path d="M64,681L234,687L163,598Z" fill="#afadad" stroke="#afadad" stroke-width="1.51"/><path d="M3,132L47,263L160,192Z" fill="#b1afaf" stroke="#b1afaf" stroke-width="1.51"/><path d="M-74,497L4,546L77,420Z" fill="#c3c1c1" stroke="#c3c1c1" stroke-width="1.51"/><path d="M1234,665L1378,598L1192,559Z" fill="#a3a1a1" stroke="#a3a1a1" stroke-width="1.51"/><path d="M1488,473L1466,342L1368,349Z" fill="#a5a3a3" stroke="#a5a3a3" stroke-width="1.51"/><path d="M1346,791L1325,671L1234,665Z" fill="#8e8b8b" stroke="#8e8b8b" stroke-width="1.51"/><path d="M179,-31L101,78L206,142Z" fill="#a8a6a6" stroke="#a8a6a6" stroke-width="1.51"/><path d="M1225,-161L1142,-157L1235,-3Z" fill="#949191" stroke="#949191" stroke-width="1.51"/><path d="M1235,-3L1142,-157L1091,14Z" fill="#989696" stroke="#989696" stroke-width="1.51"/><path d="M1047,-103L1142,-157L898,-131Z" fill="#a6a4a4" stroke="#a6a4a4" stroke-width="1.51"/><path d="M898,-131L1142,-157L621,-166Z" fill="#b6b5b5" stroke="#b6b5b5" stroke-width="1.51"/><path d="M628,1016L897,1044L797,981Z" fill="#a6a4a4" stroke="#a6a4a4" stroke-width="1.51"/><path d="M996,948L1035,1047L1089,913Z" fill="#898686" stroke="#898686" stroke-width="1.51"/><path d="M179,-31L84,32L101,78Z" fill="#a19f9f" stroke="#a19f9f" stroke-width="1.51"/><path d="M358,-132L215,-115L329,-54Z" fill="#aba9a9" stroke="#aba9a9" stroke-width="1.51"/><path d="M117,-117L215,-115L358,-132Z" fill="#a6a4a4" stroke="#a6a4a4" stroke-width="1.51"/><path d="M1325,671L1378,598L1234,665Z" fill="#989595" stroke="#989595" stroke-width="1.51"/><path d="M401,951L396,1052L557,994Z" fill="#999797" stroke="#999797" stroke-width="1.51"/><path d="M231,916L289,951L337,775Z" fill="#918e8e" stroke="#918e8e" stroke-width="1.51"/><path d="M1325,671L1437,718L1378,598Z" fill="#8e8a8a" stroke="#8e8a8a" stroke-width="1.51"/><path d="M1239,878L1255,841L1078,833Z" fill="#827e7e" stroke="#827e7e" stroke-width="1.51"/><path d="M1239,878L1078,833L1089,913Z" fill="#838080" stroke="#838080" stroke-width="1.51"/><path d="M164,769L231,916L337,775Z" fill="#989696" stroke="#989696" stroke-width="1.51"/><path d="M113,594L64,681L163,598Z" fill="#b2b0b0" stroke="#b2b0b0" stroke-width="1.51"/><path d="M4,546L64,681L113,594Z" fill="#b1b0b0" stroke="#b1b0b0" stroke-width="1.51"/><path d="M4,546L113,594L77,420Z" fill="#c1c0c0" stroke="#c1c0c0" stroke-width="1.51"/><path d="M117,-117L84,32L179,-31Z" fill="#9f9d9d" stroke="#9f9d9d" stroke-width="1.51"/><path d="M101,78L3,132L160,192Z" fill="#aba9a9" stroke="#aba9a9" stroke-width="1.51"/><path d="M93,867L231,916L164,769Z" fill="#8e8b8b" stroke="#8e8b8b" stroke-width="1.51"/><path d="M1255,841L1346,791L1234,665Z" fill="#868383" stroke="#868383" stroke-width="1.51"/><path d="M1225,1033L1239,878L1089,913Z" fill="#7a7676" stroke="#7a7676" stroke-width="1.51"/><path d="M-51,311L77,420L71,362Z" fill="#c1c1c1" stroke="#c1c1c1" stroke-width="1.51"/><path d="M1313,108L1346,0L1235,-3Z" fill="#8d8b8b" stroke="#8d8b8b" stroke-width="1.51"/><path d="M1424,83L1346,0L1313,108Z" fill="#8a8787" stroke="#8a8787" stroke-width="1.51"/><path d="M1424,83L1313,108L1338,185Z" fill="#918e8e" stroke="#918e8e" stroke-width="1.51"/><path d="M897,1044L1035,1047L996,948Z" fill="#908d8d" stroke="#908d8d" stroke-width="1.51"/><path d="M289,951L396,1052L401,951Z" fill="#939090" stroke="#939090" stroke-width="1.51"/><path d="M628,1016L396,1052L897,1044Z" fill="#a6a4a4" stroke="#a6a4a4" stroke-width="1.51"/><path d="M897,1044L1164,1053L1035,1047Z" fill="#8a8787" stroke="#8a8787" stroke-width="1.51"/><path d="M273,1062L396,1052L289,951Z" fill="#908d8d" stroke="#908d8d" stroke-width="1.51"/><path d="M1346,0L1225,-161L1235,-3Z" fill="#8c8a8a" stroke="#8c8a8a" stroke-width="1.51"/><path d="M1142,-157L1225,-161L621,-166Z" fill="#aaa8a8" stroke="#aaa8a8" stroke-width="1.51"/><path d="M15,811L100,804L64,681Z" fill="#959393" stroke="#959393" stroke-width="1.51"/><path d="M64,681L100,804L164,769Z" fill="#9b9999" stroke="#9b9999" stroke-width="1.51"/><path d="M47,263L-51,311L71,362Z" fill="#bbb9b9" stroke="#bbb9b9" stroke-width="1.51"/><path d="M84,32L3,132L101,78Z" fill="#a3a1a1" stroke="#a3a1a1" stroke-width="1.51"/><path d="M1368,349L1466,342L1338,185Z" fill="#a09d9d" stroke="#a09d9d" stroke-width="1.51"/><path d="M1488,473L1368,349L1322,486Z" fill="#b0aeae" stroke="#b0aeae" stroke-width="1.51"/><path d="M1353,921L1346,791L1255,841Z" fill="#747070" stroke="#747070" stroke-width="1.51"/><path d="M1378,598L1488,473L1322,486Z" fill="#a5a2a2" stroke="#a5a2a2" stroke-width="1.51"/><path d="M1437,718L1346,791L1431,781Z" fill="#7a7676" stroke="#7a7676" stroke-width="1.51"/><path d="M-66,256L-51,311L47,263Z" fill="#b5b4b4" stroke="#b5b4b4" stroke-width="1.51"/><path d="M1346,0L1366,-157L1225,-161Z" fill="#888585" stroke="#888585" stroke-width="1.51"/><path d="M1485,180L1424,83L1338,185Z" fill="#8d8a8a" stroke="#8d8a8a" stroke-width="1.51"/><path d="M84,32L-45,-16L3,132Z" fill="#9c9a9a" stroke="#9c9a9a" stroke-width="1.51"/><path d="M215,-115L117,-117L179,-31Z" fill="#a2a0a0" stroke="#a2a0a0" stroke-width="1.51"/><path d="M-68,-141L117,-117L358,-132Z" fill="#9f9d9d" stroke="#9f9d9d" stroke-width="1.51"/><path d="M-68,-141L358,-132L409,-141Z" fill="#a6a4a4" stroke="#a6a4a4" stroke-width="1.51"/><path d="M-135,655L-5,687L4,546Z" fill="#a9a7a7" stroke="#a9a7a7" stroke-width="1.51"/><path d="M4,546L-5,687L64,681Z" fill="#a9a7a7" stroke="#a9a7a7" stroke-width="1.51"/><path d="M1510,526L1488,473L1378,598Z" fill="#9e9b9b" stroke="#9e9b9b" stroke-width="1.51"/><path d="M1466,342L1485,180L1338,185Z" fill="#959393" stroke="#959393" stroke-width="1.51"/><path d="M-51,311L-74,497L77,420Z" fill="#c4c3c3" stroke="#c4c3c3" stroke-width="1.51"/><path d="M3,132L-66,256L47,263Z" fill="#aeadad" stroke="#aeadad" stroke-width="1.51"/><path d="M-130,232L-66,256L3,132Z" fill="#adacac" stroke="#adacac" stroke-width="1.51"/><path d="M15,811L93,867L100,804Z" fill="#8c8989" stroke="#8c8989" stroke-width="1.51"/><path d="M100,804L93,867L164,769Z" fill="#918f8f" stroke="#918f8f" stroke-width="1.51"/><path d="M231,1048L273,1062L289,951Z" fill="#8c8a8a" stroke="#8c8a8a" stroke-width="1.51"/><path d="M-111,536L-74,497L-185,455Z" fill="#c1c0c0" stroke="#c1c0c0" stroke-width="1.51"/><path d="M1602,265L1485,180L1466,342Z" fill="#979494" stroke="#979494" stroke-width="1.51"/><path d="M1346,791L1437,718L1325,671Z" fill="#848181" stroke="#848181" stroke-width="1.51"/><path d="M1431,781L1346,791L1438,870Z" fill="#716e6e" stroke="#716e6e" stroke-width="1.51"/><path d="M1488,473L1544,472L1466,342Z" fill="#aaa7a7" stroke="#aaa7a7" stroke-width="1.51"/><path d="M1558,584L1510,526L1378,598Z" fill="#979494" stroke="#979494" stroke-width="1.51"/><path d="M1035,1047L1164,1053L1089,913Z" fill="#848080" stroke="#848080" stroke-width="1.51"/><path d="M273,1062L1164,1053L897,1044Z" fill="#a6a3a3" stroke="#a6a3a3" stroke-width="1.51"/><path d="M396,1052L273,1062L897,1044Z" fill="#9e9c9c" stroke="#9e9c9c" stroke-width="1.51"/><path d="M231,1048L289,951L231,916Z" fill="#8b8989" stroke="#8b8989" stroke-width="1.51"/><path d="M69,1025L231,1048L231,916Z" fill="#868383" stroke="#868383" stroke-width="1.51"/><path d="M-5,687L15,811L64,681Z" fill="#9a9797" stroke="#9a9797" stroke-width="1.51"/><path d="M-167,829L15,811L-5,687Z" fill="#8f8d8d" stroke="#8f8d8d" stroke-width="1.51"/><path d="M1437,718L1558,584L1378,598Z" fill="#8c8989" stroke="#8c8989" stroke-width="1.51"/><path d="M1353,921L1255,841L1239,878Z" fill="#737070" stroke="#737070" stroke-width="1.51"/><path d="M69,1025L231,916L93,867Z" fill="#838181" stroke="#838181" stroke-width="1.51"/><path d="M1164,1053L1225,1033L1089,913Z" fill="#7d7979" stroke="#7d7979" stroke-width="1.51"/><path d="M1510,526L1544,472L1488,473Z" fill="#a5a2a2" stroke="#a5a2a2" stroke-width="1.51"/><path d="M1558,584L1544,472L1510,526Z" fill="#9f9c9c" stroke="#9f9c9c" stroke-width="1.51"/><path d="M-74,497L-111,536L4,546Z" fill="#bbbaba" stroke="#bbbaba" stroke-width="1.51"/><path d="M-174,344L-74,497L-51,311Z" fill="#c2c0c0" stroke="#c2c0c0" stroke-width="1.51"/><path d="M1318,1013L1353,921L1239,878Z" fill="#6e6a6a" stroke="#6e6a6a" stroke-width="1.51"/><path d="M1427,-111L1366,-157L1346,0Z" fill="#817e7e" stroke="#817e7e" stroke-width="1.51"/><path d="M1427,-111L1346,0L1482,-19Z" fill="#7d7a79" stroke="#7d7a79" stroke-width="1.51"/><path d="M117,-117L-45,-16L84,32Z" fill="#999797" stroke="#999797" stroke-width="1.51"/><path d="M-66,256L-130,232L-51,311Z" fill="#b4b2b2" stroke="#b4b2b2" stroke-width="1.51"/><path d="M-176,86L-130,232L3,132Z" fill="#a7a5a5" stroke="#a7a5a5" stroke-width="1.51"/><path d="M1482,-19L1424,83L1564,144Z" fill="#827f7f" stroke="#827f7f" stroke-width="1.51"/><path d="M1482,-19L1346,0L1424,83Z" fill="#7f7c7c" stroke="#7f7c7c" stroke-width="1.51"/><path d="M1564,144L1424,83L1485,180Z" fill="#898686" stroke="#898686" stroke-width="1.51"/><path d="M1593,713L1437,718L1586,774Z" fill="#7b7777" stroke="#7b7777" stroke-width="1.51"/><path d="M1593,713L1558,584L1437,718Z" fill="#858282" stroke="#858282" stroke-width="1.51"/><path d="M1558,584L1583,357L1544,472Z" fill="#a8a6a6" stroke="#a8a6a6" stroke-width="1.51"/><path d="M1544,472L1583,357L1466,342Z" fill="#a6a3a3" stroke="#a6a3a3" stroke-width="1.51"/><path d="M1353,921L1438,870L1346,791Z" fill="#6d6969" stroke="#6d6969" stroke-width="1.51"/><path d="M1469,995L1438,870L1353,921Z" fill="#625e5e" stroke="#625e5e" stroke-width="1.51"/><path d="M1225,1033L1318,1013L1239,878Z" fill="#726f6f" stroke="#726f6f" stroke-width="1.51"/><path d="M1164,1053L1318,1013L1225,1033Z" fill="#757171" stroke="#757171" stroke-width="1.51"/><path d="M1602,265L1564,144L1485,180Z" fill="#908d8d" stroke="#908d8d" stroke-width="1.51"/><path d="M-130,232L-174,344L-51,311Z" fill="#b7b6b6" stroke="#b7b6b6" stroke-width="1.51"/><path d="M-176,86L-174,344L-130,232Z" fill="#afadad" stroke="#afadad" stroke-width="1.51"/><path d="M-111,536L-135,655L4,546Z" fill="#b2b0b0" stroke="#b2b0b0" stroke-width="1.51"/><path d="M-48,911L69,1025L93,867Z" fill="#7d7a7a" stroke="#7d7a7a" stroke-width="1.51"/><path d="M-185,455L-135,655L-111,536Z" fill="#b7b6b6" stroke="#b7b6b6" stroke-width="1.51"/><path d="M1583,357L1602,265L1466,342Z" fill="#9e9b9b" stroke="#9e9b9b" stroke-width="1.51"/><path d="M1593,713L1602,265L1583,357Z" fill="#aca9a9" stroke="#aca9a9" stroke-width="1.51"/><path d="M-174,344L-185,455L-74,497Z" fill="#c7c6c6" stroke="#c7c6c6" stroke-width="1.51"/><path d="M-48,911L93,867L15,811Z" fill="#827f7f" stroke="#827f7f" stroke-width="1.51"/><path d="M231,1048L69,1025L273,1062Z" fill="#878484" stroke="#878484" stroke-width="1.51"/><path d="M-45,-16L-135,35L3,132Z" fill="#9b9999" stroke="#9b9999" stroke-width="1.51"/><path d="M-118,-139L-135,35L-45,-16Z" fill="#969494" stroke="#969494" stroke-width="1.51"/><path d="M-167,829L-48,911L15,811Z" fill="#838080" stroke="#838080" stroke-width="1.51"/><path d="M-174,344L-176,86L-185,455Z" fill="#b7b6b6" stroke="#b7b6b6" stroke-width="1.51"/><path d="M-135,35L-176,86L3,132Z" fill="#9f9d9d" stroke="#9f9d9d" stroke-width="1.51"/><path d="M-135,35L-118,-139L-176,86Z" fill="#969494" stroke="#969494" stroke-width="1.51"/><path d="M117,-117L-68,-141L-45,-16Z" fill="#969494" stroke="#969494" stroke-width="1.51"/><path d="M621,-166L-68,-141L409,-141Z" fill="#acabab" stroke="#acabab" stroke-width="1.51"/><path d="M1558,584L1593,713L1583,357Z" fill="#9a9898" stroke="#9a9898" stroke-width="1.51"/><path d="M1586,774L1437,718L1431,781Z" fill="#777474" stroke="#777474" stroke-width="1.51"/><path d="M1586,774L1431,781L1438,870Z" fill="#6f6b6b" stroke="#6f6b6b" stroke-width="1.51"/><path d="M1482,-19L1602,-81L1427,-111Z" fill="#7a7777" stroke="#7a7777" stroke-width="1.51"/><path d="M1427,-111L1602,-81L1366,-157Z" fill="#7a7777" stroke="#7a7777" stroke-width="1.51"/><path d="M1564,144L1584,-14L1482,-19Z" fill="#7e7b7b" stroke="#7e7b7b" stroke-width="1.51"/><path d="M1602,265L1584,-14L1564,144Z" fill="#898686" stroke="#898686" stroke-width="1.51"/><path d="M1545,943L1586,774L1438,870Z" fill="#666262" stroke="#666262" stroke-width="1.51"/><path d="M-48,911L-39,993L69,1025Z" fill="#7a7777" stroke="#7a7777" stroke-width="1.51"/><path d="M-142,916L-39,993L-48,911Z" fill="#7a7777" stroke="#7a7777" stroke-width="1.51"/><path d="M1318,1013L1469,995L1353,921Z" fill="#666262" stroke="#666262" stroke-width="1.51"/><path d="M1623,1013L1469,995L1318,1013Z" fill="#605c5c" stroke="#605c5c" stroke-width="1.51"/><path d="M-68,-141L-118,-139L-45,-16Z" fill="#969494" stroke="#969494" stroke-width="1.51"/><path d="M-185,455L-167,829L-135,655Z" fill="#a6a4a4" stroke="#a6a4a4" stroke-width="1.51"/><path d="M-135,655L-167,829L-5,687Z" fill="#989696" stroke="#989696" stroke-width="1.51"/><path d="M1584,-14L1602,-81L1482,-19Z" fill="#7a7777" stroke="#7a7777" stroke-width="1.51"/><path d="M1602,265L1602,-81L1584,-14Z" fill="#817e7e" stroke="#817e7e" stroke-width="1.51"/><path d="M1469,995L1545,943L1438,870Z" fill="#605c5c" stroke="#605c5c" stroke-width="1.51"/><path d="M-167,829L-142,916L-48,911Z" fill="#7d7a7a" stroke="#7d7a7a" stroke-width="1.51"/><path d="M-142,916L-105,1041L-39,993Z" fill="#7a7777" stroke="#7a7777" stroke-width="1.51"/><path d="M-39,993L-105,1041L69,1025Z" fill="#7a7777" stroke="#7a7777" stroke-width="1.51"/><path d="M69,1025L-105,1041L273,1062Z" fill="#807d7d" stroke="#807d7d" stroke-width="1.51"/><path d="M1469,995L1623,1013L1545,943Z" fill="#605c5c" stroke="#605c5c" stroke-width="1.51"/><path d="M1545,943L1623,1013L1586,774Z" fill="#605c5c" stroke="#605c5c" stroke-width="1.51"/><path d="M1586,774L1623,1013L1593,713Z" fill="#6b6767" stroke="#6b6767" stroke-width="1.51"/><path d="M1593,713L1623,1013L1602,265Z" fill="#878484" stroke="#878484" stroke-width="1.51"/><path d="M1602,265L1623,1013L1602,-81Z" fill="#a6a4a4" stroke="#a6a4a4" stroke-width="1.51"/><path d="M1164,1053L1623,1013L1318,1013Z" fill="#676363" stroke="#676363" stroke-width="1.51"/></svg>